<?xml version="1.0" encoding="utf-8" standalone="no"?>
<!DOCTYPE svg PUBLIC "-//W3C//DTD SVG 1.1//EN"
  "http://www.w3.org/Graphics/SVG/1.1/DTD/svg11.dtd">
<svg xmlns:xlink="http://www.w3.org/1999/xlink" width="740.086406pt" height="351.069pt" viewBox="0 0 740.086406 351.069" xmlns="http://www.w3.org/2000/svg" version="1.1">
 <metadata>
  <rdf:RDF xmlns:dc="http://purl.org/dc/elements/1.1/" xmlns:cc="http://creativecommons.org/ns#" xmlns:rdf="http://www.w3.org/1999/02/22-rdf-syntax-ns#">
   <cc:Work>
    <dc:type rdf:resource="http://purl.org/dc/dcmitype/StillImage"/>
    <dc:date>2023-03-22T18:07:12.659276</dc:date>
    <dc:format>image/svg+xml</dc:format>
    <dc:creator>
     <cc:Agent>
      <dc:title>Matplotlib v3.5.1, https://matplotlib.org/</dc:title>
     </cc:Agent>
    </dc:creator>
   </cc:Work>
  </rdf:RDF>
 </metadata>
 <defs>
  <style type="text/css">*{stroke-linejoin: round; stroke-linecap: butt}</style>
 </defs>
 <g id="figure_1">
  <g id="patch_1">
   <path d="M 0 351.069 
L 740.086406 351.069 
L 740.086406 0 
L 0 0 
z
" style="fill: #ffffff"/>
  </g>
  <g id="axes_1">
   <g id="patch_2">
    <path d="M 63.286406 294.52575 
L 367.650043 294.52575 
L 367.650043 72.76575 
L 63.286406 72.76575 
z
" style="fill: #ffffff"/>
   </g>
   <g id="matplotlib.axis_1">
    <g id="xtick_1">
     <g id="line2d_1">
      <defs>
       <path id="mb2c9ddb3e1" d="M 0 0 
L 0 3.5 
" style="stroke: #000000; stroke-width: 1.5"/>
      </defs>
      <g>
       <use xlink:href="#mb2c9ddb3e1" x="77.121117" y="294.52575" style="stroke: #000000; stroke-width: 1.5"/>
      </g>
     </g>
     <g id="text_1">
      <!-- 50 -->
      <g transform="translate(71.394867 308.364344)scale(0.09 -0.09)">
       <defs>
        <path id="DejaVuSans-35" d="M 691 4666 
L 3169 4666 
L 3169 4134 
L 1269 4134 
L 1269 2991 
Q 1406 3038 1543 3061 
Q 1681 3084 1819 3084 
Q 2600 3084 3056 2656 
Q 3513 2228 3513 1497 
Q 3513 744 3044 326 
Q 2575 -91 1722 -91 
Q 1428 -91 1123 -41 
Q 819 9 494 109 
L 494 744 
Q 775 591 1075 516 
Q 1375 441 1709 441 
Q 2250 441 2565 725 
Q 2881 1009 2881 1497 
Q 2881 1984 2565 2268 
Q 2250 2553 1709 2553 
Q 1456 2553 1204 2497 
Q 953 2441 691 2322 
L 691 4666 
z
" transform="scale(0.015625)"/>
        <path id="DejaVuSans-30" d="M 2034 4250 
Q 1547 4250 1301 3770 
Q 1056 3291 1056 2328 
Q 1056 1369 1301 889 
Q 1547 409 2034 409 
Q 2525 409 2770 889 
Q 3016 1369 3016 2328 
Q 3016 3291 2770 3770 
Q 2525 4250 2034 4250 
z
M 2034 4750 
Q 2819 4750 3233 4129 
Q 3647 3509 3647 2328 
Q 3647 1150 3233 529 
Q 2819 -91 2034 -91 
Q 1250 -91 836 529 
Q 422 1150 422 2328 
Q 422 3509 836 4129 
Q 1250 4750 2034 4750 
z
" transform="scale(0.015625)"/>
       </defs>
       <use xlink:href="#DejaVuSans-35"/>
       <use xlink:href="#DejaVuSans-30" x="63.623047"/>
      </g>
     </g>
    </g>
    <g id="xtick_2">
     <g id="line2d_2">
      <g>
       <use xlink:href="#mb2c9ddb3e1" x="123.236819" y="294.52575" style="stroke: #000000; stroke-width: 1.5"/>
      </g>
     </g>
     <g id="text_2">
      <!-- 100 -->
      <g transform="translate(114.647444 308.364344)scale(0.09 -0.09)">
       <defs>
        <path id="DejaVuSans-31" d="M 794 531 
L 1825 531 
L 1825 4091 
L 703 3866 
L 703 4441 
L 1819 4666 
L 2450 4666 
L 2450 531 
L 3481 531 
L 3481 0 
L 794 0 
L 794 531 
z
" transform="scale(0.015625)"/>
       </defs>
       <use xlink:href="#DejaVuSans-31"/>
       <use xlink:href="#DejaVuSans-30" x="63.623047"/>
       <use xlink:href="#DejaVuSans-30" x="127.246094"/>
      </g>
     </g>
    </g>
    <g id="xtick_3">
     <g id="line2d_3">
      <g>
       <use xlink:href="#mb2c9ddb3e1" x="169.352522" y="294.52575" style="stroke: #000000; stroke-width: 1.5"/>
      </g>
     </g>
     <g id="text_3">
      <!-- 150 -->
      <g transform="translate(160.763147 308.364344)scale(0.09 -0.09)">
       <use xlink:href="#DejaVuSans-31"/>
       <use xlink:href="#DejaVuSans-35" x="63.623047"/>
       <use xlink:href="#DejaVuSans-30" x="127.246094"/>
      </g>
     </g>
    </g>
    <g id="xtick_4">
     <g id="line2d_4">
      <g>
       <use xlink:href="#mb2c9ddb3e1" x="215.468224" y="294.52575" style="stroke: #000000; stroke-width: 1.5"/>
      </g>
     </g>
     <g id="text_4">
      <!-- 200 -->
      <g transform="translate(206.878849 308.364344)scale(0.09 -0.09)">
       <defs>
        <path id="DejaVuSans-32" d="M 1228 531 
L 3431 531 
L 3431 0 
L 469 0 
L 469 531 
Q 828 903 1448 1529 
Q 2069 2156 2228 2338 
Q 2531 2678 2651 2914 
Q 2772 3150 2772 3378 
Q 2772 3750 2511 3984 
Q 2250 4219 1831 4219 
Q 1534 4219 1204 4116 
Q 875 4013 500 3803 
L 500 4441 
Q 881 4594 1212 4672 
Q 1544 4750 1819 4750 
Q 2544 4750 2975 4387 
Q 3406 4025 3406 3419 
Q 3406 3131 3298 2873 
Q 3191 2616 2906 2266 
Q 2828 2175 2409 1742 
Q 1991 1309 1228 531 
z
" transform="scale(0.015625)"/>
       </defs>
       <use xlink:href="#DejaVuSans-32"/>
       <use xlink:href="#DejaVuSans-30" x="63.623047"/>
       <use xlink:href="#DejaVuSans-30" x="127.246094"/>
      </g>
     </g>
    </g>
    <g id="xtick_5">
     <g id="line2d_5">
      <g>
       <use xlink:href="#mb2c9ddb3e1" x="261.583927" y="294.52575" style="stroke: #000000; stroke-width: 1.5"/>
      </g>
     </g>
     <g id="text_5">
      <!-- 250 -->
      <g transform="translate(252.994552 308.364344)scale(0.09 -0.09)">
       <use xlink:href="#DejaVuSans-32"/>
       <use xlink:href="#DejaVuSans-35" x="63.623047"/>
       <use xlink:href="#DejaVuSans-30" x="127.246094"/>
      </g>
     </g>
    </g>
    <g id="xtick_6">
     <g id="line2d_6">
      <g>
       <use xlink:href="#mb2c9ddb3e1" x="307.699629" y="294.52575" style="stroke: #000000; stroke-width: 1.5"/>
      </g>
     </g>
     <g id="text_6">
      <!-- 300 -->
      <g transform="translate(299.110254 308.364344)scale(0.09 -0.09)">
       <defs>
        <path id="DejaVuSans-33" d="M 2597 2516 
Q 3050 2419 3304 2112 
Q 3559 1806 3559 1356 
Q 3559 666 3084 287 
Q 2609 -91 1734 -91 
Q 1441 -91 1130 -33 
Q 819 25 488 141 
L 488 750 
Q 750 597 1062 519 
Q 1375 441 1716 441 
Q 2309 441 2620 675 
Q 2931 909 2931 1356 
Q 2931 1769 2642 2001 
Q 2353 2234 1838 2234 
L 1294 2234 
L 1294 2753 
L 1863 2753 
Q 2328 2753 2575 2939 
Q 2822 3125 2822 3475 
Q 2822 3834 2567 4026 
Q 2313 4219 1838 4219 
Q 1578 4219 1281 4162 
Q 984 4106 628 3988 
L 628 4550 
Q 988 4650 1302 4700 
Q 1616 4750 1894 4750 
Q 2613 4750 3031 4423 
Q 3450 4097 3450 3541 
Q 3450 3153 3228 2886 
Q 3006 2619 2597 2516 
z
" transform="scale(0.015625)"/>
       </defs>
       <use xlink:href="#DejaVuSans-33"/>
       <use xlink:href="#DejaVuSans-30" x="63.623047"/>
       <use xlink:href="#DejaVuSans-30" x="127.246094"/>
      </g>
     </g>
    </g>
    <g id="xtick_7">
     <g id="line2d_7">
      <g>
       <use xlink:href="#mb2c9ddb3e1" x="353.815332" y="294.52575" style="stroke: #000000; stroke-width: 1.5"/>
      </g>
     </g>
     <g id="text_7">
      <!-- 350 -->
      <g transform="translate(345.225957 308.364344)scale(0.09 -0.09)">
       <use xlink:href="#DejaVuSans-33"/>
       <use xlink:href="#DejaVuSans-35" x="63.623047"/>
       <use xlink:href="#DejaVuSans-30" x="127.246094"/>
      </g>
     </g>
    </g>
   </g>
   <g id="matplotlib.axis_2">
    <g id="ytick_1">
     <g id="line2d_8">
      <defs>
       <path id="m4efe78cf9b" d="M 0 0 
L -3.5 0 
" style="stroke: #000000; stroke-width: 1.5"/>
      </defs>
      <g>
       <use xlink:href="#m4efe78cf9b" x="63.286406" y="294.52575" style="stroke: #000000; stroke-width: 1.5"/>
      </g>
     </g>
     <g id="text_8">
      <!-- 0% -->
      <g transform="translate(42.00875 297.945047)scale(0.09 -0.09)">
       <defs>
        <path id="DejaVuSans-25" d="M 4653 2053 
Q 4381 2053 4226 1822 
Q 4072 1591 4072 1178 
Q 4072 772 4226 539 
Q 4381 306 4653 306 
Q 4919 306 5073 539 
Q 5228 772 5228 1178 
Q 5228 1588 5073 1820 
Q 4919 2053 4653 2053 
z
M 4653 2450 
Q 5147 2450 5437 2106 
Q 5728 1763 5728 1178 
Q 5728 594 5436 251 
Q 5144 -91 4653 -91 
Q 4153 -91 3862 251 
Q 3572 594 3572 1178 
Q 3572 1766 3864 2108 
Q 4156 2450 4653 2450 
z
M 1428 4353 
Q 1159 4353 1004 4120 
Q 850 3888 850 3481 
Q 850 3069 1003 2837 
Q 1156 2606 1428 2606 
Q 1700 2606 1854 2837 
Q 2009 3069 2009 3481 
Q 2009 3884 1853 4118 
Q 1697 4353 1428 4353 
z
M 4250 4750 
L 4750 4750 
L 1831 -91 
L 1331 -91 
L 4250 4750 
z
M 1428 4750 
Q 1922 4750 2215 4408 
Q 2509 4066 2509 3481 
Q 2509 2891 2217 2550 
Q 1925 2209 1428 2209 
Q 931 2209 642 2551 
Q 353 2894 353 3481 
Q 353 4063 643 4406 
Q 934 4750 1428 4750 
z
" transform="scale(0.015625)"/>
       </defs>
       <use xlink:href="#DejaVuSans-30"/>
       <use xlink:href="#DejaVuSans-25" x="63.623047"/>
      </g>
     </g>
    </g>
    <g id="ytick_2">
     <g id="line2d_9">
      <g>
       <use xlink:href="#m4efe78cf9b" x="63.286406" y="250.17375" style="stroke: #000000; stroke-width: 1.5"/>
      </g>
     </g>
     <g id="text_9">
      <!-- 20% -->
      <g transform="translate(36.2825 253.593047)scale(0.09 -0.09)">
       <use xlink:href="#DejaVuSans-32"/>
       <use xlink:href="#DejaVuSans-30" x="63.623047"/>
       <use xlink:href="#DejaVuSans-25" x="127.246094"/>
      </g>
     </g>
    </g>
    <g id="ytick_3">
     <g id="line2d_10">
      <g>
       <use xlink:href="#m4efe78cf9b" x="63.286406" y="205.82175" style="stroke: #000000; stroke-width: 1.5"/>
      </g>
     </g>
     <g id="text_10">
      <!-- 40% -->
      <g transform="translate(36.2825 209.241047)scale(0.09 -0.09)">
       <defs>
        <path id="DejaVuSans-34" d="M 2419 4116 
L 825 1625 
L 2419 1625 
L 2419 4116 
z
M 2253 4666 
L 3047 4666 
L 3047 1625 
L 3713 1625 
L 3713 1100 
L 3047 1100 
L 3047 0 
L 2419 0 
L 2419 1100 
L 313 1100 
L 313 1709 
L 2253 4666 
z
" transform="scale(0.015625)"/>
       </defs>
       <use xlink:href="#DejaVuSans-34"/>
       <use xlink:href="#DejaVuSans-30" x="63.623047"/>
       <use xlink:href="#DejaVuSans-25" x="127.246094"/>
      </g>
     </g>
    </g>
    <g id="ytick_4">
     <g id="line2d_11">
      <g>
       <use xlink:href="#m4efe78cf9b" x="63.286406" y="161.46975" style="stroke: #000000; stroke-width: 1.5"/>
      </g>
     </g>
     <g id="text_11">
      <!-- 60% -->
      <g transform="translate(36.2825 164.889047)scale(0.09 -0.09)">
       <defs>
        <path id="DejaVuSans-36" d="M 2113 2584 
Q 1688 2584 1439 2293 
Q 1191 2003 1191 1497 
Q 1191 994 1439 701 
Q 1688 409 2113 409 
Q 2538 409 2786 701 
Q 3034 994 3034 1497 
Q 3034 2003 2786 2293 
Q 2538 2584 2113 2584 
z
M 3366 4563 
L 3366 3988 
Q 3128 4100 2886 4159 
Q 2644 4219 2406 4219 
Q 1781 4219 1451 3797 
Q 1122 3375 1075 2522 
Q 1259 2794 1537 2939 
Q 1816 3084 2150 3084 
Q 2853 3084 3261 2657 
Q 3669 2231 3669 1497 
Q 3669 778 3244 343 
Q 2819 -91 2113 -91 
Q 1303 -91 875 529 
Q 447 1150 447 2328 
Q 447 3434 972 4092 
Q 1497 4750 2381 4750 
Q 2619 4750 2861 4703 
Q 3103 4656 3366 4563 
z
" transform="scale(0.015625)"/>
       </defs>
       <use xlink:href="#DejaVuSans-36"/>
       <use xlink:href="#DejaVuSans-30" x="63.623047"/>
       <use xlink:href="#DejaVuSans-25" x="127.246094"/>
      </g>
     </g>
    </g>
    <g id="ytick_5">
     <g id="line2d_12">
      <g>
       <use xlink:href="#m4efe78cf9b" x="63.286406" y="117.11775" style="stroke: #000000; stroke-width: 1.5"/>
      </g>
     </g>
     <g id="text_12">
      <!-- 80% -->
      <g transform="translate(36.2825 120.537047)scale(0.09 -0.09)">
       <defs>
        <path id="DejaVuSans-38" d="M 2034 2216 
Q 1584 2216 1326 1975 
Q 1069 1734 1069 1313 
Q 1069 891 1326 650 
Q 1584 409 2034 409 
Q 2484 409 2743 651 
Q 3003 894 3003 1313 
Q 3003 1734 2745 1975 
Q 2488 2216 2034 2216 
z
M 1403 2484 
Q 997 2584 770 2862 
Q 544 3141 544 3541 
Q 544 4100 942 4425 
Q 1341 4750 2034 4750 
Q 2731 4750 3128 4425 
Q 3525 4100 3525 3541 
Q 3525 3141 3298 2862 
Q 3072 2584 2669 2484 
Q 3125 2378 3379 2068 
Q 3634 1759 3634 1313 
Q 3634 634 3220 271 
Q 2806 -91 2034 -91 
Q 1263 -91 848 271 
Q 434 634 434 1313 
Q 434 1759 690 2068 
Q 947 2378 1403 2484 
z
M 1172 3481 
Q 1172 3119 1398 2916 
Q 1625 2713 2034 2713 
Q 2441 2713 2670 2916 
Q 2900 3119 2900 3481 
Q 2900 3844 2670 4047 
Q 2441 4250 2034 4250 
Q 1625 4250 1398 4047 
Q 1172 3844 1172 3481 
z
" transform="scale(0.015625)"/>
       </defs>
       <use xlink:href="#DejaVuSans-38"/>
       <use xlink:href="#DejaVuSans-30" x="63.623047"/>
       <use xlink:href="#DejaVuSans-25" x="127.246094"/>
      </g>
     </g>
    </g>
    <g id="ytick_6">
     <g id="line2d_13">
      <g>
       <use xlink:href="#m4efe78cf9b" x="63.286406" y="72.76575" style="stroke: #000000; stroke-width: 1.5"/>
      </g>
     </g>
     <g id="text_13">
      <!-- 100% -->
      <g transform="translate(30.55625 76.185047)scale(0.09 -0.09)">
       <use xlink:href="#DejaVuSans-31"/>
       <use xlink:href="#DejaVuSans-30" x="63.623047"/>
       <use xlink:href="#DejaVuSans-30" x="127.246094"/>
       <use xlink:href="#DejaVuSans-25" x="190.869141"/>
      </g>
     </g>
    </g>
    <g id="text_14">
     <!-- % Valid Samples -->
     <g transform="translate(22.396875 266.30825)rotate(-90)scale(0.2 -0.2)">
      <defs>
       <path id="DejaVuSans-20" transform="scale(0.015625)"/>
       <path id="DejaVuSans-56" d="M 1831 0 
L 50 4666 
L 709 4666 
L 2188 738 
L 3669 4666 
L 4325 4666 
L 2547 0 
L 1831 0 
z
" transform="scale(0.015625)"/>
       <path id="DejaVuSans-61" d="M 2194 1759 
Q 1497 1759 1228 1600 
Q 959 1441 959 1056 
Q 959 750 1161 570 
Q 1363 391 1709 391 
Q 2188 391 2477 730 
Q 2766 1069 2766 1631 
L 2766 1759 
L 2194 1759 
z
M 3341 1997 
L 3341 0 
L 2766 0 
L 2766 531 
Q 2569 213 2275 61 
Q 1981 -91 1556 -91 
Q 1019 -91 701 211 
Q 384 513 384 1019 
Q 384 1609 779 1909 
Q 1175 2209 1959 2209 
L 2766 2209 
L 2766 2266 
Q 2766 2663 2505 2880 
Q 2244 3097 1772 3097 
Q 1472 3097 1187 3025 
Q 903 2953 641 2809 
L 641 3341 
Q 956 3463 1253 3523 
Q 1550 3584 1831 3584 
Q 2591 3584 2966 3190 
Q 3341 2797 3341 1997 
z
" transform="scale(0.015625)"/>
       <path id="DejaVuSans-6c" d="M 603 4863 
L 1178 4863 
L 1178 0 
L 603 0 
L 603 4863 
z
" transform="scale(0.015625)"/>
       <path id="DejaVuSans-69" d="M 603 3500 
L 1178 3500 
L 1178 0 
L 603 0 
L 603 3500 
z
M 603 4863 
L 1178 4863 
L 1178 4134 
L 603 4134 
L 603 4863 
z
" transform="scale(0.015625)"/>
       <path id="DejaVuSans-64" d="M 2906 2969 
L 2906 4863 
L 3481 4863 
L 3481 0 
L 2906 0 
L 2906 525 
Q 2725 213 2448 61 
Q 2172 -91 1784 -91 
Q 1150 -91 751 415 
Q 353 922 353 1747 
Q 353 2572 751 3078 
Q 1150 3584 1784 3584 
Q 2172 3584 2448 3432 
Q 2725 3281 2906 2969 
z
M 947 1747 
Q 947 1113 1208 752 
Q 1469 391 1925 391 
Q 2381 391 2643 752 
Q 2906 1113 2906 1747 
Q 2906 2381 2643 2742 
Q 2381 3103 1925 3103 
Q 1469 3103 1208 2742 
Q 947 2381 947 1747 
z
" transform="scale(0.015625)"/>
       <path id="DejaVuSans-53" d="M 3425 4513 
L 3425 3897 
Q 3066 4069 2747 4153 
Q 2428 4238 2131 4238 
Q 1616 4238 1336 4038 
Q 1056 3838 1056 3469 
Q 1056 3159 1242 3001 
Q 1428 2844 1947 2747 
L 2328 2669 
Q 3034 2534 3370 2195 
Q 3706 1856 3706 1288 
Q 3706 609 3251 259 
Q 2797 -91 1919 -91 
Q 1588 -91 1214 -16 
Q 841 59 441 206 
L 441 856 
Q 825 641 1194 531 
Q 1563 422 1919 422 
Q 2459 422 2753 634 
Q 3047 847 3047 1241 
Q 3047 1584 2836 1778 
Q 2625 1972 2144 2069 
L 1759 2144 
Q 1053 2284 737 2584 
Q 422 2884 422 3419 
Q 422 4038 858 4394 
Q 1294 4750 2059 4750 
Q 2388 4750 2728 4690 
Q 3069 4631 3425 4513 
z
" transform="scale(0.015625)"/>
       <path id="DejaVuSans-6d" d="M 3328 2828 
Q 3544 3216 3844 3400 
Q 4144 3584 4550 3584 
Q 5097 3584 5394 3201 
Q 5691 2819 5691 2113 
L 5691 0 
L 5113 0 
L 5113 2094 
Q 5113 2597 4934 2840 
Q 4756 3084 4391 3084 
Q 3944 3084 3684 2787 
Q 3425 2491 3425 1978 
L 3425 0 
L 2847 0 
L 2847 2094 
Q 2847 2600 2669 2842 
Q 2491 3084 2119 3084 
Q 1678 3084 1418 2786 
Q 1159 2488 1159 1978 
L 1159 0 
L 581 0 
L 581 3500 
L 1159 3500 
L 1159 2956 
Q 1356 3278 1631 3431 
Q 1906 3584 2284 3584 
Q 2666 3584 2933 3390 
Q 3200 3197 3328 2828 
z
" transform="scale(0.015625)"/>
       <path id="DejaVuSans-70" d="M 1159 525 
L 1159 -1331 
L 581 -1331 
L 581 3500 
L 1159 3500 
L 1159 2969 
Q 1341 3281 1617 3432 
Q 1894 3584 2278 3584 
Q 2916 3584 3314 3078 
Q 3713 2572 3713 1747 
Q 3713 922 3314 415 
Q 2916 -91 2278 -91 
Q 1894 -91 1617 61 
Q 1341 213 1159 525 
z
M 3116 1747 
Q 3116 2381 2855 2742 
Q 2594 3103 2138 3103 
Q 1681 3103 1420 2742 
Q 1159 2381 1159 1747 
Q 1159 1113 1420 752 
Q 1681 391 2138 391 
Q 2594 391 2855 752 
Q 3116 1113 3116 1747 
z
" transform="scale(0.015625)"/>
       <path id="DejaVuSans-65" d="M 3597 1894 
L 3597 1613 
L 953 1613 
Q 991 1019 1311 708 
Q 1631 397 2203 397 
Q 2534 397 2845 478 
Q 3156 559 3463 722 
L 3463 178 
Q 3153 47 2828 -22 
Q 2503 -91 2169 -91 
Q 1331 -91 842 396 
Q 353 884 353 1716 
Q 353 2575 817 3079 
Q 1281 3584 2069 3584 
Q 2775 3584 3186 3129 
Q 3597 2675 3597 1894 
z
M 3022 2063 
Q 3016 2534 2758 2815 
Q 2500 3097 2075 3097 
Q 1594 3097 1305 2825 
Q 1016 2553 972 2059 
L 3022 2063 
z
" transform="scale(0.015625)"/>
       <path id="DejaVuSans-73" d="M 2834 3397 
L 2834 2853 
Q 2591 2978 2328 3040 
Q 2066 3103 1784 3103 
Q 1356 3103 1142 2972 
Q 928 2841 928 2578 
Q 928 2378 1081 2264 
Q 1234 2150 1697 2047 
L 1894 2003 
Q 2506 1872 2764 1633 
Q 3022 1394 3022 966 
Q 3022 478 2636 193 
Q 2250 -91 1575 -91 
Q 1294 -91 989 -36 
Q 684 19 347 128 
L 347 722 
Q 666 556 975 473 
Q 1284 391 1588 391 
Q 1994 391 2212 530 
Q 2431 669 2431 922 
Q 2431 1156 2273 1281 
Q 2116 1406 1581 1522 
L 1381 1569 
Q 847 1681 609 1914 
Q 372 2147 372 2553 
Q 372 3047 722 3315 
Q 1072 3584 1716 3584 
Q 2034 3584 2315 3537 
Q 2597 3491 2834 3397 
z
" transform="scale(0.015625)"/>
      </defs>
      <use xlink:href="#DejaVuSans-25"/>
      <use xlink:href="#DejaVuSans-20" x="95.019531"/>
      <use xlink:href="#DejaVuSans-56" x="126.806641"/>
      <use xlink:href="#DejaVuSans-61" x="187.464844"/>
      <use xlink:href="#DejaVuSans-6c" x="248.744141"/>
      <use xlink:href="#DejaVuSans-69" x="276.527344"/>
      <use xlink:href="#DejaVuSans-64" x="304.310547"/>
      <use xlink:href="#DejaVuSans-20" x="367.787109"/>
      <use xlink:href="#DejaVuSans-53" x="399.574219"/>
      <use xlink:href="#DejaVuSans-61" x="463.050781"/>
      <use xlink:href="#DejaVuSans-6d" x="524.330078"/>
      <use xlink:href="#DejaVuSans-70" x="621.742188"/>
      <use xlink:href="#DejaVuSans-6c" x="685.21875"/>
      <use xlink:href="#DejaVuSans-65" x="713.001953"/>
      <use xlink:href="#DejaVuSans-73" x="774.525391"/>
     </g>
    </g>
   </g>
   <g id="line2d_14">
    <path d="M 77.121117 292.4279 
L 86.344257 242.30127 
L 95.567398 177.015126 
L 104.790538 132.729654 
L 114.013679 110.198838 
L 123.236819 101.771958 
L 132.45996 99.066486 
L 141.6831 94.143414 
L 150.906241 89.974326 
L 160.129381 89.264694 
" clip-path="url(#pb3f5ba22f4)" style="fill: none; stroke: #b22222; stroke-width: 3; stroke-linecap: square"/>
    <defs>
     <path id="m5c5f19c219" d="M 0 2.5 
C 0.663008 2.5 1.29895 2.236584 1.767767 1.767767 
C 2.236584 1.29895 2.5 0.663008 2.5 0 
C 2.5 -0.663008 2.236584 -1.29895 1.767767 -1.767767 
C 1.29895 -2.236584 0.663008 -2.5 0 -2.5 
C -0.663008 -2.5 -1.29895 -2.236584 -1.767767 -1.767767 
C -2.236584 -1.29895 -2.5 -0.663008 -2.5 0 
C -2.5 0.663008 -2.236584 1.29895 -1.767767 1.767767 
C -1.29895 2.236584 -0.663008 2.5 0 2.5 
z
" style="stroke: #b22222"/>
    </defs>
    <g clip-path="url(#pb3f5ba22f4)">
     <use xlink:href="#m5c5f19c219" x="77.121117" y="292.4279" style="fill: #b22222; stroke: #b22222"/>
     <use xlink:href="#m5c5f19c219" x="86.344257" y="242.30127" style="fill: #b22222; stroke: #b22222"/>
     <use xlink:href="#m5c5f19c219" x="95.567398" y="177.015126" style="fill: #b22222; stroke: #b22222"/>
     <use xlink:href="#m5c5f19c219" x="104.790538" y="132.729654" style="fill: #b22222; stroke: #b22222"/>
     <use xlink:href="#m5c5f19c219" x="114.013679" y="110.198838" style="fill: #b22222; stroke: #b22222"/>
     <use xlink:href="#m5c5f19c219" x="123.236819" y="101.771958" style="fill: #b22222; stroke: #b22222"/>
     <use xlink:href="#m5c5f19c219" x="132.45996" y="99.066486" style="fill: #b22222; stroke: #b22222"/>
     <use xlink:href="#m5c5f19c219" x="141.6831" y="94.143414" style="fill: #b22222; stroke: #b22222"/>
     <use xlink:href="#m5c5f19c219" x="150.906241" y="89.974326" style="fill: #b22222; stroke: #b22222"/>
     <use xlink:href="#m5c5f19c219" x="160.129381" y="89.264694" style="fill: #b22222; stroke: #b22222"/>
    </g>
   </g>
   <g id="line2d_15">
    <path d="M 77.121117 292.343632 
L 86.344257 271.307478 
L 95.567398 234.362262 
L 104.790538 196.818294 
L 114.013679 191.252118 
L 123.236819 176.150262 
L 132.45996 163.177302 
L 141.6831 168.078198 
L 150.906241 160.538358 
L 160.129381 162.046326 
L 169.352522 154.617366 
L 178.575662 149.960406 
L 187.798803 137.807958 
L 197.021943 143.28543 
L 206.245084 146.523126 
L 215.468224 130.711638 
L 224.691365 135.74559 
L 233.914505 130.556406 
L 243.137646 114.78927 
L 252.360786 111.57375 
L 261.583927 120.421974 
L 270.807067 108.735222 
L 280.030208 112.327734 
L 289.253348 119.268822 
L 298.476489 122.306934 
L 307.699629 111.972918 
L 316.92277 109.644438 
L 326.14591 114.811446 
L 335.369051 104.92095 
L 344.592191 109.267446 
L 353.815332 106.295862 
" clip-path="url(#pb3f5ba22f4)" style="fill: none; stroke: #4169e1; stroke-width: 3; stroke-linecap: square"/>
    <defs>
     <path id="m5d25581599" d="M 0 2.5 
C 0.663008 2.5 1.29895 2.236584 1.767767 1.767767 
C 2.236584 1.29895 2.5 0.663008 2.5 0 
C 2.5 -0.663008 2.236584 -1.29895 1.767767 -1.767767 
C 1.29895 -2.236584 0.663008 -2.5 0 -2.5 
C -0.663008 -2.5 -1.29895 -2.236584 -1.767767 -1.767767 
C -2.236584 -1.29895 -2.5 -0.663008 -2.5 0 
C -2.5 0.663008 -2.236584 1.29895 -1.767767 1.767767 
C -1.29895 2.236584 -0.663008 2.5 0 2.5 
z
" style="stroke: #4169e1"/>
    </defs>
    <g clip-path="url(#pb3f5ba22f4)">
     <use xlink:href="#m5d25581599" x="77.121117" y="292.343632" style="fill: #4169e1; stroke: #4169e1"/>
     <use xlink:href="#m5d25581599" x="86.344257" y="271.307478" style="fill: #4169e1; stroke: #4169e1"/>
     <use xlink:href="#m5d25581599" x="95.567398" y="234.362262" style="fill: #4169e1; stroke: #4169e1"/>
     <use xlink:href="#m5d25581599" x="104.790538" y="196.818294" style="fill: #4169e1; stroke: #4169e1"/>
     <use xlink:href="#m5d25581599" x="114.013679" y="191.252118" style="fill: #4169e1; stroke: #4169e1"/>
     <use xlink:href="#m5d25581599" x="123.236819" y="176.150262" style="fill: #4169e1; stroke: #4169e1"/>
     <use xlink:href="#m5d25581599" x="132.45996" y="163.177302" style="fill: #4169e1; stroke: #4169e1"/>
     <use xlink:href="#m5d25581599" x="141.6831" y="168.078198" style="fill: #4169e1; stroke: #4169e1"/>
     <use xlink:href="#m5d25581599" x="150.906241" y="160.538358" style="fill: #4169e1; stroke: #4169e1"/>
     <use xlink:href="#m5d25581599" x="160.129381" y="162.046326" style="fill: #4169e1; stroke: #4169e1"/>
     <use xlink:href="#m5d25581599" x="169.352522" y="154.617366" style="fill: #4169e1; stroke: #4169e1"/>
     <use xlink:href="#m5d25581599" x="178.575662" y="149.960406" style="fill: #4169e1; stroke: #4169e1"/>
     <use xlink:href="#m5d25581599" x="187.798803" y="137.807958" style="fill: #4169e1; stroke: #4169e1"/>
     <use xlink:href="#m5d25581599" x="197.021943" y="143.28543" style="fill: #4169e1; stroke: #4169e1"/>
     <use xlink:href="#m5d25581599" x="206.245084" y="146.523126" style="fill: #4169e1; stroke: #4169e1"/>
     <use xlink:href="#m5d25581599" x="215.468224" y="130.711638" style="fill: #4169e1; stroke: #4169e1"/>
     <use xlink:href="#m5d25581599" x="224.691365" y="135.74559" style="fill: #4169e1; stroke: #4169e1"/>
     <use xlink:href="#m5d25581599" x="233.914505" y="130.556406" style="fill: #4169e1; stroke: #4169e1"/>
     <use xlink:href="#m5d25581599" x="243.137646" y="114.78927" style="fill: #4169e1; stroke: #4169e1"/>
     <use xlink:href="#m5d25581599" x="252.360786" y="111.57375" style="fill: #4169e1; stroke: #4169e1"/>
     <use xlink:href="#m5d25581599" x="261.583927" y="120.421974" style="fill: #4169e1; stroke: #4169e1"/>
     <use xlink:href="#m5d25581599" x="270.807067" y="108.735222" style="fill: #4169e1; stroke: #4169e1"/>
     <use xlink:href="#m5d25581599" x="280.030208" y="112.327734" style="fill: #4169e1; stroke: #4169e1"/>
     <use xlink:href="#m5d25581599" x="289.253348" y="119.268822" style="fill: #4169e1; stroke: #4169e1"/>
     <use xlink:href="#m5d25581599" x="298.476489" y="122.306934" style="fill: #4169e1; stroke: #4169e1"/>
     <use xlink:href="#m5d25581599" x="307.699629" y="111.972918" style="fill: #4169e1; stroke: #4169e1"/>
     <use xlink:href="#m5d25581599" x="316.92277" y="109.644438" style="fill: #4169e1; stroke: #4169e1"/>
     <use xlink:href="#m5d25581599" x="326.14591" y="114.811446" style="fill: #4169e1; stroke: #4169e1"/>
     <use xlink:href="#m5d25581599" x="335.369051" y="104.92095" style="fill: #4169e1; stroke: #4169e1"/>
     <use xlink:href="#m5d25581599" x="344.592191" y="109.267446" style="fill: #4169e1; stroke: #4169e1"/>
     <use xlink:href="#m5d25581599" x="353.815332" y="106.295862" style="fill: #4169e1; stroke: #4169e1"/>
    </g>
   </g>
   <g id="line2d_16">
    <path d="M 77.121117 292.31702 
L 86.344257 234.20703 
L 95.567398 230.88063 
L 104.790538 243.29919 
L 114.013679 234.65055 
L 123.236819 212.47455 
L 132.45996 202.49535 
L 141.6831 201.38655 
L 150.906241 209.81343 
L 197.021943 204.93471 
L 206.245084 212.47455 
L 215.468224 200.05599 
L 224.691365 203.38239 
L 233.914505 186.97215 
L 243.137646 178.76703 
L 252.360786 178.54527 
L 261.583927 175.88415 
L 270.807067 169.23135 
L 280.030208 166.79199 
" clip-path="url(#pb3f5ba22f4)" style="fill: none; stroke: #daa520; stroke-width: 3; stroke-linecap: square"/>
    <defs>
     <path id="m59a91b7bef" d="M 0 2.5 
C 0.663008 2.5 1.29895 2.236584 1.767767 1.767767 
C 2.236584 1.29895 2.5 0.663008 2.5 0 
C 2.5 -0.663008 2.236584 -1.29895 1.767767 -1.767767 
C 1.29895 -2.236584 0.663008 -2.5 0 -2.5 
C -0.663008 -2.5 -1.29895 -2.236584 -1.767767 -1.767767 
C -2.236584 -1.29895 -2.5 -0.663008 -2.5 0 
C -2.5 0.663008 -2.236584 1.29895 -1.767767 1.767767 
C -1.29895 2.236584 -0.663008 2.5 0 2.5 
z
" style="stroke: #daa520"/>
    </defs>
    <g clip-path="url(#pb3f5ba22f4)">
     <use xlink:href="#m59a91b7bef" x="77.121117" y="292.31702" style="fill: #daa520; stroke: #daa520"/>
     <use xlink:href="#m59a91b7bef" x="86.344257" y="234.20703" style="fill: #daa520; stroke: #daa520"/>
     <use xlink:href="#m59a91b7bef" x="95.567398" y="230.88063" style="fill: #daa520; stroke: #daa520"/>
     <use xlink:href="#m59a91b7bef" x="104.790538" y="243.29919" style="fill: #daa520; stroke: #daa520"/>
     <use xlink:href="#m59a91b7bef" x="114.013679" y="234.65055" style="fill: #daa520; stroke: #daa520"/>
     <use xlink:href="#m59a91b7bef" x="123.236819" y="212.47455" style="fill: #daa520; stroke: #daa520"/>
     <use xlink:href="#m59a91b7bef" x="132.45996" y="202.49535" style="fill: #daa520; stroke: #daa520"/>
     <use xlink:href="#m59a91b7bef" x="141.6831" y="201.38655" style="fill: #daa520; stroke: #daa520"/>
     <use xlink:href="#m59a91b7bef" x="150.906241" y="209.81343" style="fill: #daa520; stroke: #daa520"/>
     <use xlink:href="#m59a91b7bef" x="197.021943" y="204.93471" style="fill: #daa520; stroke: #daa520"/>
     <use xlink:href="#m59a91b7bef" x="206.245084" y="212.47455" style="fill: #daa520; stroke: #daa520"/>
     <use xlink:href="#m59a91b7bef" x="215.468224" y="200.05599" style="fill: #daa520; stroke: #daa520"/>
     <use xlink:href="#m59a91b7bef" x="224.691365" y="203.38239" style="fill: #daa520; stroke: #daa520"/>
     <use xlink:href="#m59a91b7bef" x="233.914505" y="186.97215" style="fill: #daa520; stroke: #daa520"/>
     <use xlink:href="#m59a91b7bef" x="243.137646" y="178.76703" style="fill: #daa520; stroke: #daa520"/>
     <use xlink:href="#m59a91b7bef" x="252.360786" y="178.54527" style="fill: #daa520; stroke: #daa520"/>
     <use xlink:href="#m59a91b7bef" x="261.583927" y="175.88415" style="fill: #daa520; stroke: #daa520"/>
     <use xlink:href="#m59a91b7bef" x="270.807067" y="169.23135" style="fill: #daa520; stroke: #daa520"/>
     <use xlink:href="#m59a91b7bef" x="280.030208" y="166.79199" style="fill: #daa520; stroke: #daa520"/>
    </g>
   </g>
   <g id="line2d_17">
    <path d="M 63.286406 89.264694 
L 367.650043 89.264694 
" clip-path="url(#pb3f5ba22f4)" style="fill: none; stroke-dasharray: 5.55,2.4; stroke-dashoffset: 0; stroke: #b22222; stroke-opacity: 0.5; stroke-width: 1.5"/>
   </g>
   <g id="line2d_18">
    <path d="M 63.286406 104.92095 
L 367.650043 104.92095 
" clip-path="url(#pb3f5ba22f4)" style="fill: none; stroke-dasharray: 5.55,2.4; stroke-dashoffset: 0; stroke: #4169e1; stroke-opacity: 0.5; stroke-width: 1.5"/>
   </g>
   <g id="line2d_19">
    <path d="M 63.286406 166.79199 
L 367.650043 166.79199 
" clip-path="url(#pb3f5ba22f4)" style="fill: none; stroke-dasharray: 5.55,2.4; stroke-dashoffset: 0; stroke: #daa520; stroke-opacity: 0.5; stroke-width: 1.5"/>
   </g>
   <g id="patch_3">
    <path d="M 63.286406 294.52575 
L 63.286406 72.76575 
" style="fill: none; stroke: #000000; stroke-width: 1.5; stroke-linejoin: miter; stroke-linecap: square"/>
   </g>
   <g id="patch_4">
    <path d="M 63.286406 294.52575 
L 367.650043 294.52575 
" style="fill: none; stroke: #000000; stroke-width: 1.5; stroke-linejoin: miter; stroke-linecap: square"/>
   </g>
   <g id="legend_1">
    <g id="line2d_20">
     <path d="M 137.926406 26.63625 
L 161.926406 26.63625 
L 185.926406 26.63625 
" style="fill: none; stroke: #b22222; stroke-width: 3; stroke-linecap: square"/>
     <g>
      <use xlink:href="#m5c5f19c219" x="161.926406" y="26.63625" style="fill: #b22222; stroke: #b22222"/>
     </g>
    </g>
    <g id="text_15">
     <!-- SUNLE -->
     <g transform="translate(205.126406 35.03625)scale(0.24 -0.24)">
      <defs>
       <path id="DejaVuSans-Bold-53" d="M 3834 4519 
L 3834 3531 
Q 3450 3703 3084 3790 
Q 2719 3878 2394 3878 
Q 1963 3878 1756 3759 
Q 1550 3641 1550 3391 
Q 1550 3203 1689 3098 
Q 1828 2994 2194 2919 
L 2706 2816 
Q 3484 2659 3812 2340 
Q 4141 2022 4141 1434 
Q 4141 663 3683 286 
Q 3225 -91 2284 -91 
Q 1841 -91 1394 -6 
Q 947 78 500 244 
L 500 1259 
Q 947 1022 1364 901 
Q 1781 781 2169 781 
Q 2563 781 2772 912 
Q 2981 1044 2981 1288 
Q 2981 1506 2839 1625 
Q 2697 1744 2272 1838 
L 1806 1941 
Q 1106 2091 782 2419 
Q 459 2747 459 3303 
Q 459 4000 909 4375 
Q 1359 4750 2203 4750 
Q 2588 4750 2994 4692 
Q 3400 4634 3834 4519 
z
" transform="scale(0.015625)"/>
       <path id="DejaVuSans-Bold-55" d="M 588 4666 
L 1791 4666 
L 1791 1869 
Q 1791 1291 1980 1042 
Q 2169 794 2597 794 
Q 3028 794 3217 1042 
Q 3406 1291 3406 1869 
L 3406 4666 
L 4609 4666 
L 4609 1869 
Q 4609 878 4112 393 
Q 3616 -91 2597 -91 
Q 1581 -91 1084 393 
Q 588 878 588 1869 
L 588 4666 
z
" transform="scale(0.015625)"/>
       <path id="DejaVuSans-Bold-4e" d="M 588 4666 
L 1931 4666 
L 3628 1466 
L 3628 4666 
L 4769 4666 
L 4769 0 
L 3425 0 
L 1728 3200 
L 1728 0 
L 588 0 
L 588 4666 
z
" transform="scale(0.015625)"/>
       <path id="DejaVuSans-Bold-4c" d="M 588 4666 
L 1791 4666 
L 1791 909 
L 3903 909 
L 3903 0 
L 588 0 
L 588 4666 
z
" transform="scale(0.015625)"/>
       <path id="DejaVuSans-Bold-45" d="M 588 4666 
L 3834 4666 
L 3834 3756 
L 1791 3756 
L 1791 2888 
L 3713 2888 
L 3713 1978 
L 1791 1978 
L 1791 909 
L 3903 909 
L 3903 0 
L 588 0 
L 588 4666 
z
" transform="scale(0.015625)"/>
      </defs>
      <use xlink:href="#DejaVuSans-Bold-53"/>
      <use xlink:href="#DejaVuSans-Bold-55" x="72.021484"/>
      <use xlink:href="#DejaVuSans-Bold-4e" x="153.222656"/>
      <use xlink:href="#DejaVuSans-Bold-4c" x="236.914062"/>
      <use xlink:href="#DejaVuSans-Bold-45" x="300.634766"/>
     </g>
    </g>
    <g id="line2d_21">
     <path d="M 341.671406 26.63625 
L 365.671406 26.63625 
L 389.671406 26.63625 
" style="fill: none; stroke: #4169e1; stroke-width: 3; stroke-linecap: square"/>
     <g>
      <use xlink:href="#m5d25581599" x="365.671406" y="26.63625" style="fill: #4169e1; stroke: #4169e1"/>
     </g>
    </g>
    <g id="text_16">
     <!-- SNVI -->
     <g transform="translate(408.871406 35.03625)scale(0.24 -0.24)">
      <defs>
       <path id="DejaVuSans-4e" d="M 628 4666 
L 1478 4666 
L 3547 763 
L 3547 4666 
L 4159 4666 
L 4159 0 
L 3309 0 
L 1241 3903 
L 1241 0 
L 628 0 
L 628 4666 
z
" transform="scale(0.015625)"/>
       <path id="DejaVuSans-49" d="M 628 4666 
L 1259 4666 
L 1259 0 
L 628 0 
L 628 4666 
z
" transform="scale(0.015625)"/>
      </defs>
      <use xlink:href="#DejaVuSans-53"/>
      <use xlink:href="#DejaVuSans-4e" x="63.476562"/>
      <use xlink:href="#DejaVuSans-56" x="138.28125"/>
      <use xlink:href="#DejaVuSans-49" x="206.689453"/>
     </g>
    </g>
    <g id="line2d_22">
     <path d="M 513.560156 26.63625 
L 537.560156 26.63625 
L 561.560156 26.63625 
" style="fill: none; stroke: #daa520; stroke-width: 3; stroke-linecap: square"/>
     <g>
      <use xlink:href="#m59a91b7bef" x="537.560156" y="26.63625" style="fill: #daa520; stroke: #daa520"/>
     </g>
    </g>
    <g id="text_17">
     <!-- TSNPE -->
     <g transform="translate(580.760156 35.03625)scale(0.24 -0.24)">
      <defs>
       <path id="DejaVuSans-54" d="M -19 4666 
L 3928 4666 
L 3928 4134 
L 2272 4134 
L 2272 0 
L 1638 0 
L 1638 4134 
L -19 4134 
L -19 4666 
z
" transform="scale(0.015625)"/>
       <path id="DejaVuSans-50" d="M 1259 4147 
L 1259 2394 
L 2053 2394 
Q 2494 2394 2734 2622 
Q 2975 2850 2975 3272 
Q 2975 3691 2734 3919 
Q 2494 4147 2053 4147 
L 1259 4147 
z
M 628 4666 
L 2053 4666 
Q 2838 4666 3239 4311 
Q 3641 3956 3641 3272 
Q 3641 2581 3239 2228 
Q 2838 1875 2053 1875 
L 1259 1875 
L 1259 0 
L 628 0 
L 628 4666 
z
" transform="scale(0.015625)"/>
       <path id="DejaVuSans-45" d="M 628 4666 
L 3578 4666 
L 3578 4134 
L 1259 4134 
L 1259 2753 
L 3481 2753 
L 3481 2222 
L 1259 2222 
L 1259 531 
L 3634 531 
L 3634 0 
L 628 0 
L 628 4666 
z
" transform="scale(0.015625)"/>
      </defs>
      <use xlink:href="#DejaVuSans-54"/>
      <use xlink:href="#DejaVuSans-53" x="61.083984"/>
      <use xlink:href="#DejaVuSans-4e" x="124.560547"/>
      <use xlink:href="#DejaVuSans-50" x="199.365234"/>
      <use xlink:href="#DejaVuSans-45" x="259.667969"/>
     </g>
    </g>
   </g>
  </g>
  <g id="axes_2">
   <g id="patch_5">
    <path d="M 428.52277 294.52575 
L 732.886406 294.52575 
L 732.886406 72.76575 
L 428.52277 72.76575 
z
" style="fill: #ffffff"/>
   </g>
   <g id="matplotlib.axis_3">
    <g id="xtick_8">
     <g id="line2d_23">
      <g>
       <use xlink:href="#mb2c9ddb3e1" x="442.357481" y="294.52575" style="stroke: #000000; stroke-width: 1.5"/>
      </g>
     </g>
     <g id="text_18">
      <!-- 50 -->
      <g transform="translate(436.631231 308.364344)scale(0.09 -0.09)">
       <use xlink:href="#DejaVuSans-35"/>
       <use xlink:href="#DejaVuSans-30" x="63.623047"/>
      </g>
     </g>
    </g>
    <g id="xtick_9">
     <g id="line2d_24">
      <g>
       <use xlink:href="#mb2c9ddb3e1" x="488.473183" y="294.52575" style="stroke: #000000; stroke-width: 1.5"/>
      </g>
     </g>
     <g id="text_19">
      <!-- 100 -->
      <g transform="translate(479.883808 308.364344)scale(0.09 -0.09)">
       <use xlink:href="#DejaVuSans-31"/>
       <use xlink:href="#DejaVuSans-30" x="63.623047"/>
       <use xlink:href="#DejaVuSans-30" x="127.246094"/>
      </g>
     </g>
    </g>
    <g id="xtick_10">
     <g id="line2d_25">
      <g>
       <use xlink:href="#mb2c9ddb3e1" x="534.588886" y="294.52575" style="stroke: #000000; stroke-width: 1.5"/>
      </g>
     </g>
     <g id="text_20">
      <!-- 150 -->
      <g transform="translate(525.999511 308.364344)scale(0.09 -0.09)">
       <use xlink:href="#DejaVuSans-31"/>
       <use xlink:href="#DejaVuSans-35" x="63.623047"/>
       <use xlink:href="#DejaVuSans-30" x="127.246094"/>
      </g>
     </g>
    </g>
    <g id="xtick_11">
     <g id="line2d_26">
      <g>
       <use xlink:href="#mb2c9ddb3e1" x="580.704588" y="294.52575" style="stroke: #000000; stroke-width: 1.5"/>
      </g>
     </g>
     <g id="text_21">
      <!-- 200 -->
      <g transform="translate(572.115213 308.364344)scale(0.09 -0.09)">
       <use xlink:href="#DejaVuSans-32"/>
       <use xlink:href="#DejaVuSans-30" x="63.623047"/>
       <use xlink:href="#DejaVuSans-30" x="127.246094"/>
      </g>
     </g>
    </g>
    <g id="xtick_12">
     <g id="line2d_27">
      <g>
       <use xlink:href="#mb2c9ddb3e1" x="626.820291" y="294.52575" style="stroke: #000000; stroke-width: 1.5"/>
      </g>
     </g>
     <g id="text_22">
      <!-- 250 -->
      <g transform="translate(618.230916 308.364344)scale(0.09 -0.09)">
       <use xlink:href="#DejaVuSans-32"/>
       <use xlink:href="#DejaVuSans-35" x="63.623047"/>
       <use xlink:href="#DejaVuSans-30" x="127.246094"/>
      </g>
     </g>
    </g>
    <g id="xtick_13">
     <g id="line2d_28">
      <g>
       <use xlink:href="#mb2c9ddb3e1" x="672.935993" y="294.52575" style="stroke: #000000; stroke-width: 1.5"/>
      </g>
     </g>
     <g id="text_23">
      <!-- 300 -->
      <g transform="translate(664.346618 308.364344)scale(0.09 -0.09)">
       <use xlink:href="#DejaVuSans-33"/>
       <use xlink:href="#DejaVuSans-30" x="63.623047"/>
       <use xlink:href="#DejaVuSans-30" x="127.246094"/>
      </g>
     </g>
    </g>
    <g id="xtick_14">
     <g id="line2d_29">
      <g>
       <use xlink:href="#mb2c9ddb3e1" x="719.051696" y="294.52575" style="stroke: #000000; stroke-width: 1.5"/>
      </g>
     </g>
     <g id="text_24">
      <!-- 350 -->
      <g transform="translate(710.462321 308.364344)scale(0.09 -0.09)">
       <use xlink:href="#DejaVuSans-33"/>
       <use xlink:href="#DejaVuSans-35" x="63.623047"/>
       <use xlink:href="#DejaVuSans-30" x="127.246094"/>
      </g>
     </g>
    </g>
   </g>
   <g id="matplotlib.axis_4">
    <g id="ytick_7">
     <g id="line2d_30">
      <g>
       <use xlink:href="#m4efe78cf9b" x="428.52277" y="294.52575" style="stroke: #000000; stroke-width: 1.5"/>
      </g>
     </g>
     <g id="text_25">
      <!-- 0.0 -->
      <g transform="translate(395.709957 297.945047)scale(0.09 -0.09)">
       <defs>
        <path id="DejaVuSans-2e" d="M 684 794 
L 1344 794 
L 1344 0 
L 684 0 
L 684 794 
z
" transform="scale(0.015625)"/>
       </defs>
       <use xlink:href="#DejaVuSans-30"/>
       <use xlink:href="#DejaVuSans-2e" x="63.623047"/>
       <use xlink:href="#DejaVuSans-30" x="95.410156"/>
      </g>
     </g>
    </g>
    <g id="ytick_8">
     <g id="line2d_31">
      <g>
       <use xlink:href="#m4efe78cf9b" x="428.52277" y="264.95775" style="stroke: #000000; stroke-width: 1.5"/>
      </g>
     </g>
     <g id="text_26">
      <!-- 0.2 -->
      <g transform="translate(395.709957 268.377047)scale(0.09 -0.09)">
       <use xlink:href="#DejaVuSans-30"/>
       <use xlink:href="#DejaVuSans-2e" x="63.623047"/>
       <use xlink:href="#DejaVuSans-32" x="95.410156"/>
      </g>
     </g>
    </g>
    <g id="ytick_9">
     <g id="line2d_32">
      <g>
       <use xlink:href="#m4efe78cf9b" x="428.52277" y="235.38975" style="stroke: #000000; stroke-width: 1.5"/>
      </g>
     </g>
     <g id="text_27">
      <!-- 0.4 -->
      <g transform="translate(395.709957 238.809047)scale(0.09 -0.09)">
       <use xlink:href="#DejaVuSans-30"/>
       <use xlink:href="#DejaVuSans-2e" x="63.623047"/>
       <use xlink:href="#DejaVuSans-34" x="95.410156"/>
      </g>
     </g>
    </g>
    <g id="ytick_10">
     <g id="line2d_33">
      <g>
       <use xlink:href="#m4efe78cf9b" x="428.52277" y="205.82175" style="stroke: #000000; stroke-width: 1.5"/>
      </g>
     </g>
     <g id="text_28">
      <!-- 0.6 -->
      <g transform="translate(395.709957 209.241047)scale(0.09 -0.09)">
       <use xlink:href="#DejaVuSans-30"/>
       <use xlink:href="#DejaVuSans-2e" x="63.623047"/>
       <use xlink:href="#DejaVuSans-36" x="95.410156"/>
      </g>
     </g>
    </g>
    <g id="ytick_11">
     <g id="line2d_34">
      <g>
       <use xlink:href="#m4efe78cf9b" x="428.52277" y="176.25375" style="stroke: #000000; stroke-width: 1.5"/>
      </g>
     </g>
     <g id="text_29">
      <!-- 0.8 -->
      <g transform="translate(395.709957 179.673047)scale(0.09 -0.09)">
       <use xlink:href="#DejaVuSans-30"/>
       <use xlink:href="#DejaVuSans-2e" x="63.623047"/>
       <use xlink:href="#DejaVuSans-38" x="95.410156"/>
      </g>
     </g>
    </g>
    <g id="ytick_12">
     <g id="line2d_35">
      <g>
       <use xlink:href="#m4efe78cf9b" x="428.52277" y="146.68575" style="stroke: #000000; stroke-width: 1.5"/>
      </g>
     </g>
     <g id="text_30">
      <!-- 1.0 -->
      <g transform="translate(395.709957 150.105047)scale(0.09 -0.09)">
       <use xlink:href="#DejaVuSans-31"/>
       <use xlink:href="#DejaVuSans-2e" x="63.623047"/>
       <use xlink:href="#DejaVuSans-30" x="95.410156"/>
      </g>
     </g>
    </g>
    <g id="ytick_13">
     <g id="line2d_36">
      <g>
       <use xlink:href="#m4efe78cf9b" x="428.52277" y="117.11775" style="stroke: #000000; stroke-width: 1.5"/>
      </g>
     </g>
     <g id="text_31">
      <!-- 1.2 -->
      <g transform="translate(395.709957 120.537047)scale(0.09 -0.09)">
       <use xlink:href="#DejaVuSans-31"/>
       <use xlink:href="#DejaVuSans-2e" x="63.623047"/>
       <use xlink:href="#DejaVuSans-32" x="95.410156"/>
      </g>
     </g>
    </g>
    <g id="ytick_14">
     <g id="line2d_37">
      <g>
       <use xlink:href="#m4efe78cf9b" x="428.52277" y="87.54975" style="stroke: #000000; stroke-width: 1.5"/>
      </g>
     </g>
     <g id="text_32">
      <!-- 1.4 -->
      <g transform="translate(395.709957 90.969047)scale(0.09 -0.09)">
       <use xlink:href="#DejaVuSans-31"/>
       <use xlink:href="#DejaVuSans-2e" x="63.623047"/>
       <use xlink:href="#DejaVuSans-34" x="95.410156"/>
      </g>
     </g>
    </g>
    <g id="text_33">
     <!-- Energy Score -->
     <g transform="translate(387.550582 249.841062)rotate(-90)scale(0.2 -0.2)">
      <defs>
       <path id="DejaVuSans-6e" d="M 3513 2113 
L 3513 0 
L 2938 0 
L 2938 2094 
Q 2938 2591 2744 2837 
Q 2550 3084 2163 3084 
Q 1697 3084 1428 2787 
Q 1159 2491 1159 1978 
L 1159 0 
L 581 0 
L 581 3500 
L 1159 3500 
L 1159 2956 
Q 1366 3272 1645 3428 
Q 1925 3584 2291 3584 
Q 2894 3584 3203 3211 
Q 3513 2838 3513 2113 
z
" transform="scale(0.015625)"/>
       <path id="DejaVuSans-72" d="M 2631 2963 
Q 2534 3019 2420 3045 
Q 2306 3072 2169 3072 
Q 1681 3072 1420 2755 
Q 1159 2438 1159 1844 
L 1159 0 
L 581 0 
L 581 3500 
L 1159 3500 
L 1159 2956 
Q 1341 3275 1631 3429 
Q 1922 3584 2338 3584 
Q 2397 3584 2469 3576 
Q 2541 3569 2628 3553 
L 2631 2963 
z
" transform="scale(0.015625)"/>
       <path id="DejaVuSans-67" d="M 2906 1791 
Q 2906 2416 2648 2759 
Q 2391 3103 1925 3103 
Q 1463 3103 1205 2759 
Q 947 2416 947 1791 
Q 947 1169 1205 825 
Q 1463 481 1925 481 
Q 2391 481 2648 825 
Q 2906 1169 2906 1791 
z
M 3481 434 
Q 3481 -459 3084 -895 
Q 2688 -1331 1869 -1331 
Q 1566 -1331 1297 -1286 
Q 1028 -1241 775 -1147 
L 775 -588 
Q 1028 -725 1275 -790 
Q 1522 -856 1778 -856 
Q 2344 -856 2625 -561 
Q 2906 -266 2906 331 
L 2906 616 
Q 2728 306 2450 153 
Q 2172 0 1784 0 
Q 1141 0 747 490 
Q 353 981 353 1791 
Q 353 2603 747 3093 
Q 1141 3584 1784 3584 
Q 2172 3584 2450 3431 
Q 2728 3278 2906 2969 
L 2906 3500 
L 3481 3500 
L 3481 434 
z
" transform="scale(0.015625)"/>
       <path id="DejaVuSans-79" d="M 2059 -325 
Q 1816 -950 1584 -1140 
Q 1353 -1331 966 -1331 
L 506 -1331 
L 506 -850 
L 844 -850 
Q 1081 -850 1212 -737 
Q 1344 -625 1503 -206 
L 1606 56 
L 191 3500 
L 800 3500 
L 1894 763 
L 2988 3500 
L 3597 3500 
L 2059 -325 
z
" transform="scale(0.015625)"/>
       <path id="DejaVuSans-63" d="M 3122 3366 
L 3122 2828 
Q 2878 2963 2633 3030 
Q 2388 3097 2138 3097 
Q 1578 3097 1268 2742 
Q 959 2388 959 1747 
Q 959 1106 1268 751 
Q 1578 397 2138 397 
Q 2388 397 2633 464 
Q 2878 531 3122 666 
L 3122 134 
Q 2881 22 2623 -34 
Q 2366 -91 2075 -91 
Q 1284 -91 818 406 
Q 353 903 353 1747 
Q 353 2603 823 3093 
Q 1294 3584 2113 3584 
Q 2378 3584 2631 3529 
Q 2884 3475 3122 3366 
z
" transform="scale(0.015625)"/>
       <path id="DejaVuSans-6f" d="M 1959 3097 
Q 1497 3097 1228 2736 
Q 959 2375 959 1747 
Q 959 1119 1226 758 
Q 1494 397 1959 397 
Q 2419 397 2687 759 
Q 2956 1122 2956 1747 
Q 2956 2369 2687 2733 
Q 2419 3097 1959 3097 
z
M 1959 3584 
Q 2709 3584 3137 3096 
Q 3566 2609 3566 1747 
Q 3566 888 3137 398 
Q 2709 -91 1959 -91 
Q 1206 -91 779 398 
Q 353 888 353 1747 
Q 353 2609 779 3096 
Q 1206 3584 1959 3584 
z
" transform="scale(0.015625)"/>
      </defs>
      <use xlink:href="#DejaVuSans-45"/>
      <use xlink:href="#DejaVuSans-6e" x="63.183594"/>
      <use xlink:href="#DejaVuSans-65" x="126.5625"/>
      <use xlink:href="#DejaVuSans-72" x="188.085938"/>
      <use xlink:href="#DejaVuSans-67" x="227.449219"/>
      <use xlink:href="#DejaVuSans-79" x="290.925781"/>
      <use xlink:href="#DejaVuSans-20" x="350.105469"/>
      <use xlink:href="#DejaVuSans-53" x="381.892578"/>
      <use xlink:href="#DejaVuSans-63" x="445.369141"/>
      <use xlink:href="#DejaVuSans-6f" x="500.349609"/>
      <use xlink:href="#DejaVuSans-72" x="561.53125"/>
      <use xlink:href="#DejaVuSans-65" x="600.394531"/>
     </g>
    </g>
   </g>
   <g id="line2d_38">
    <path d="M 442.357481 45.994991 
L 451.580621 184.067516 
L 460.803762 220.948857 
L 470.026902 243.398134 
L 479.250043 254.217486 
L 488.473183 259.480096 
L 497.696324 261.468109 
L 506.919464 264.286105 
L 516.142605 267.004929 
L 525.365745 269.257583 
" clip-path="url(#pefc3725f02)" style="fill: none; stroke: #b22222; stroke-width: 3; stroke-linecap: square"/>
    <g clip-path="url(#pefc3725f02)">
     <use xlink:href="#m5c5f19c219" x="442.357481" y="45.994991" style="fill: #b22222; stroke: #b22222"/>
     <use xlink:href="#m5c5f19c219" x="451.580621" y="184.067516" style="fill: #b22222; stroke: #b22222"/>
     <use xlink:href="#m5c5f19c219" x="460.803762" y="220.948857" style="fill: #b22222; stroke: #b22222"/>
     <use xlink:href="#m5c5f19c219" x="470.026902" y="243.398134" style="fill: #b22222; stroke: #b22222"/>
     <use xlink:href="#m5c5f19c219" x="479.250043" y="254.217486" style="fill: #b22222; stroke: #b22222"/>
     <use xlink:href="#m5c5f19c219" x="488.473183" y="259.480096" style="fill: #b22222; stroke: #b22222"/>
     <use xlink:href="#m5c5f19c219" x="497.696324" y="261.468109" style="fill: #b22222; stroke: #b22222"/>
     <use xlink:href="#m5c5f19c219" x="506.919464" y="264.286105" style="fill: #b22222; stroke: #b22222"/>
     <use xlink:href="#m5c5f19c219" x="516.142605" y="267.004929" style="fill: #b22222; stroke: #b22222"/>
     <use xlink:href="#m5c5f19c219" x="525.365745" y="269.257583" style="fill: #b22222; stroke: #b22222"/>
    </g>
   </g>
   <g id="line2d_39">
    <path d="M 442.357481 42.847873 
L 451.580621 167.33994 
L 460.803762 199.545311 
L 470.026902 210.242156 
L 479.250043 215.116804 
L 488.473183 213.917118 
L 497.696324 221.04425 
L 506.919464 221.166084 
L 516.142605 222.107721 
L 525.365745 217.606567 
L 534.588886 227.230209 
L 543.812026 234.311162 
L 553.035167 240.960105 
L 562.258307 238.864596 
L 571.481448 238.580486 
L 580.704588 245.977718 
L 589.927729 249.701785 
L 599.150869 250.844236 
L 608.37401 258.67274 
L 617.59715 261.353054 
L 626.820291 257.529269 
L 636.043431 262.986554 
L 645.266572 262.515537 
L 654.489712 260.348011 
L 663.712853 258.215977 
L 672.935993 264.932283 
L 682.159134 263.001331 
L 691.382274 262.48724 
L 700.605415 263.516656 
L 709.828555 264.074849 
L 719.051696 263.049028 
" clip-path="url(#pefc3725f02)" style="fill: none; stroke: #4169e1; stroke-width: 3; stroke-linecap: square"/>
    <g clip-path="url(#pefc3725f02)">
     <use xlink:href="#m5d25581599" x="442.357481" y="42.847873" style="fill: #4169e1; stroke: #4169e1"/>
     <use xlink:href="#m5d25581599" x="451.580621" y="167.33994" style="fill: #4169e1; stroke: #4169e1"/>
     <use xlink:href="#m5d25581599" x="460.803762" y="199.545311" style="fill: #4169e1; stroke: #4169e1"/>
     <use xlink:href="#m5d25581599" x="470.026902" y="210.242156" style="fill: #4169e1; stroke: #4169e1"/>
     <use xlink:href="#m5d25581599" x="479.250043" y="215.116804" style="fill: #4169e1; stroke: #4169e1"/>
     <use xlink:href="#m5d25581599" x="488.473183" y="213.917118" style="fill: #4169e1; stroke: #4169e1"/>
     <use xlink:href="#m5d25581599" x="497.696324" y="221.04425" style="fill: #4169e1; stroke: #4169e1"/>
     <use xlink:href="#m5d25581599" x="506.919464" y="221.166084" style="fill: #4169e1; stroke: #4169e1"/>
     <use xlink:href="#m5d25581599" x="516.142605" y="222.107721" style="fill: #4169e1; stroke: #4169e1"/>
     <use xlink:href="#m5d25581599" x="525.365745" y="217.606567" style="fill: #4169e1; stroke: #4169e1"/>
     <use xlink:href="#m5d25581599" x="534.588886" y="227.230209" style="fill: #4169e1; stroke: #4169e1"/>
     <use xlink:href="#m5d25581599" x="543.812026" y="234.311162" style="fill: #4169e1; stroke: #4169e1"/>
     <use xlink:href="#m5d25581599" x="553.035167" y="240.960105" style="fill: #4169e1; stroke: #4169e1"/>
     <use xlink:href="#m5d25581599" x="562.258307" y="238.864596" style="fill: #4169e1; stroke: #4169e1"/>
     <use xlink:href="#m5d25581599" x="571.481448" y="238.580486" style="fill: #4169e1; stroke: #4169e1"/>
     <use xlink:href="#m5d25581599" x="580.704588" y="245.977718" style="fill: #4169e1; stroke: #4169e1"/>
     <use xlink:href="#m5d25581599" x="589.927729" y="249.701785" style="fill: #4169e1; stroke: #4169e1"/>
     <use xlink:href="#m5d25581599" x="599.150869" y="250.844236" style="fill: #4169e1; stroke: #4169e1"/>
     <use xlink:href="#m5d25581599" x="608.37401" y="258.67274" style="fill: #4169e1; stroke: #4169e1"/>
     <use xlink:href="#m5d25581599" x="617.59715" y="261.353054" style="fill: #4169e1; stroke: #4169e1"/>
     <use xlink:href="#m5d25581599" x="626.820291" y="257.529269" style="fill: #4169e1; stroke: #4169e1"/>
     <use xlink:href="#m5d25581599" x="636.043431" y="262.986554" style="fill: #4169e1; stroke: #4169e1"/>
     <use xlink:href="#m5d25581599" x="645.266572" y="262.515537" style="fill: #4169e1; stroke: #4169e1"/>
     <use xlink:href="#m5d25581599" x="654.489712" y="260.348011" style="fill: #4169e1; stroke: #4169e1"/>
     <use xlink:href="#m5d25581599" x="663.712853" y="258.215977" style="fill: #4169e1; stroke: #4169e1"/>
     <use xlink:href="#m5d25581599" x="672.935993" y="264.932283" style="fill: #4169e1; stroke: #4169e1"/>
     <use xlink:href="#m5d25581599" x="682.159134" y="263.001331" style="fill: #4169e1; stroke: #4169e1"/>
     <use xlink:href="#m5d25581599" x="691.382274" y="262.48724" style="fill: #4169e1; stroke: #4169e1"/>
     <use xlink:href="#m5d25581599" x="700.605415" y="263.516656" style="fill: #4169e1; stroke: #4169e1"/>
     <use xlink:href="#m5d25581599" x="709.828555" y="264.074849" style="fill: #4169e1; stroke: #4169e1"/>
     <use xlink:href="#m5d25581599" x="719.051696" y="263.049028" style="fill: #4169e1; stroke: #4169e1"/>
    </g>
   </g>
   <g id="line2d_40">
    <path d="M 442.357481 53.065154 
L 451.580621 155.322995 
L 460.803762 169.158568 
L 470.026902 162.710406 
L 479.250043 157.704389 
L 488.473183 183.645204 
L 497.696324 193.614974 
L 506.919464 195.137961 
L 516.142605 195.864066 
L 562.258307 185.449125 
L 571.481448 196.318622 
L 580.704588 173.951459 
L 589.927729 198.299707 
L 599.150869 230.039838 
L 608.37401 228.114554 
L 617.59715 237.47875 
L 626.820291 233.725568 
L 636.043431 229.500806 
L 645.266572 238.767612 
" clip-path="url(#pefc3725f02)" style="fill: none; stroke: #daa520; stroke-width: 3; stroke-linecap: square"/>
    <g clip-path="url(#pefc3725f02)">
     <use xlink:href="#m59a91b7bef" x="442.357481" y="53.065154" style="fill: #daa520; stroke: #daa520"/>
     <use xlink:href="#m59a91b7bef" x="451.580621" y="155.322995" style="fill: #daa520; stroke: #daa520"/>
     <use xlink:href="#m59a91b7bef" x="460.803762" y="169.158568" style="fill: #daa520; stroke: #daa520"/>
     <use xlink:href="#m59a91b7bef" x="470.026902" y="162.710406" style="fill: #daa520; stroke: #daa520"/>
     <use xlink:href="#m59a91b7bef" x="479.250043" y="157.704389" style="fill: #daa520; stroke: #daa520"/>
     <use xlink:href="#m59a91b7bef" x="488.473183" y="183.645204" style="fill: #daa520; stroke: #daa520"/>
     <use xlink:href="#m59a91b7bef" x="497.696324" y="193.614974" style="fill: #daa520; stroke: #daa520"/>
     <use xlink:href="#m59a91b7bef" x="506.919464" y="195.137961" style="fill: #daa520; stroke: #daa520"/>
     <use xlink:href="#m59a91b7bef" x="516.142605" y="195.864066" style="fill: #daa520; stroke: #daa520"/>
     <use xlink:href="#m59a91b7bef" x="562.258307" y="185.449125" style="fill: #daa520; stroke: #daa520"/>
     <use xlink:href="#m59a91b7bef" x="571.481448" y="196.318622" style="fill: #daa520; stroke: #daa520"/>
     <use xlink:href="#m59a91b7bef" x="580.704588" y="173.951459" style="fill: #daa520; stroke: #daa520"/>
     <use xlink:href="#m59a91b7bef" x="589.927729" y="198.299707" style="fill: #daa520; stroke: #daa520"/>
     <use xlink:href="#m59a91b7bef" x="599.150869" y="230.039838" style="fill: #daa520; stroke: #daa520"/>
     <use xlink:href="#m59a91b7bef" x="608.37401" y="228.114554" style="fill: #daa520; stroke: #daa520"/>
     <use xlink:href="#m59a91b7bef" x="617.59715" y="237.47875" style="fill: #daa520; stroke: #daa520"/>
     <use xlink:href="#m59a91b7bef" x="626.820291" y="233.725568" style="fill: #daa520; stroke: #daa520"/>
     <use xlink:href="#m59a91b7bef" x="636.043431" y="229.500806" style="fill: #daa520; stroke: #daa520"/>
     <use xlink:href="#m59a91b7bef" x="645.266572" y="238.767612" style="fill: #daa520; stroke: #daa520"/>
    </g>
   </g>
   <g id="line2d_41">
    <path d="M 428.52277 269.257583 
L 732.886406 269.257583 
" clip-path="url(#pefc3725f02)" style="fill: none; stroke-dasharray: 5.55,2.4; stroke-dashoffset: 0; stroke: #b22222; stroke-opacity: 0.5; stroke-width: 1.5"/>
   </g>
   <g id="line2d_42">
    <path d="M 428.52277 264.932283 
L 732.886406 264.932283 
" clip-path="url(#pefc3725f02)" style="fill: none; stroke-dasharray: 5.55,2.4; stroke-dashoffset: 0; stroke: #4169e1; stroke-opacity: 0.5; stroke-width: 1.5"/>
   </g>
   <g id="line2d_43">
    <path d="M 428.52277 238.767612 
L 732.886406 238.767612 
" clip-path="url(#pefc3725f02)" style="fill: none; stroke-dasharray: 5.55,2.4; stroke-dashoffset: 0; stroke: #daa520; stroke-opacity: 0.5; stroke-width: 1.5"/>
   </g>
   <g id="patch_6">
    <path d="M 428.52277 294.52575 
L 428.52277 72.76575 
" style="fill: none; stroke: #000000; stroke-width: 1.5; stroke-linejoin: miter; stroke-linecap: square"/>
   </g>
   <g id="patch_7">
    <path d="M 428.52277 294.52575 
L 732.886406 294.52575 
" style="fill: none; stroke: #000000; stroke-width: 1.5; stroke-linejoin: miter; stroke-linecap: square"/>
   </g>
   <g id="text_34">
    <!-- Simulator Budget (x10) -->
    <g transform="translate(245.904588 338.87775)scale(0.24 -0.24)">
     <defs>
      <path id="DejaVuSans-75" d="M 544 1381 
L 544 3500 
L 1119 3500 
L 1119 1403 
Q 1119 906 1312 657 
Q 1506 409 1894 409 
Q 2359 409 2629 706 
Q 2900 1003 2900 1516 
L 2900 3500 
L 3475 3500 
L 3475 0 
L 2900 0 
L 2900 538 
Q 2691 219 2414 64 
Q 2138 -91 1772 -91 
Q 1169 -91 856 284 
Q 544 659 544 1381 
z
M 1991 3584 
L 1991 3584 
z
" transform="scale(0.015625)"/>
      <path id="DejaVuSans-74" d="M 1172 4494 
L 1172 3500 
L 2356 3500 
L 2356 3053 
L 1172 3053 
L 1172 1153 
Q 1172 725 1289 603 
Q 1406 481 1766 481 
L 2356 481 
L 2356 0 
L 1766 0 
Q 1100 0 847 248 
Q 594 497 594 1153 
L 594 3053 
L 172 3053 
L 172 3500 
L 594 3500 
L 594 4494 
L 1172 4494 
z
" transform="scale(0.015625)"/>
      <path id="DejaVuSans-42" d="M 1259 2228 
L 1259 519 
L 2272 519 
Q 2781 519 3026 730 
Q 3272 941 3272 1375 
Q 3272 1813 3026 2020 
Q 2781 2228 2272 2228 
L 1259 2228 
z
M 1259 4147 
L 1259 2741 
L 2194 2741 
Q 2656 2741 2882 2914 
Q 3109 3088 3109 3444 
Q 3109 3797 2882 3972 
Q 2656 4147 2194 4147 
L 1259 4147 
z
M 628 4666 
L 2241 4666 
Q 2963 4666 3353 4366 
Q 3744 4066 3744 3513 
Q 3744 3084 3544 2831 
Q 3344 2578 2956 2516 
Q 3422 2416 3680 2098 
Q 3938 1781 3938 1306 
Q 3938 681 3513 340 
Q 3088 0 2303 0 
L 628 0 
L 628 4666 
z
" transform="scale(0.015625)"/>
      <path id="DejaVuSans-28" d="M 1984 4856 
Q 1566 4138 1362 3434 
Q 1159 2731 1159 2009 
Q 1159 1288 1364 580 
Q 1569 -128 1984 -844 
L 1484 -844 
Q 1016 -109 783 600 
Q 550 1309 550 2009 
Q 550 2706 781 3412 
Q 1013 4119 1484 4856 
L 1984 4856 
z
" transform="scale(0.015625)"/>
      <path id="DejaVuSans-78" d="M 3513 3500 
L 2247 1797 
L 3578 0 
L 2900 0 
L 1881 1375 
L 863 0 
L 184 0 
L 1544 1831 
L 300 3500 
L 978 3500 
L 1906 2253 
L 2834 3500 
L 3513 3500 
z
" transform="scale(0.015625)"/>
      <path id="DejaVuSans-b3" d="M 1638 3500 
Q 1925 3444 2083 3273 
Q 2241 3103 2241 2847 
Q 2241 2459 1944 2250 
Q 1647 2041 1094 2041 
Q 916 2041 720 2073 
Q 525 2106 306 2169 
L 306 2547 
Q 469 2463 655 2422 
Q 841 2381 1050 2381 
Q 1391 2381 1578 2504 
Q 1766 2628 1766 2847 
Q 1766 3078 1592 3197 
Q 1419 3316 1081 3316 
L 813 3316 
L 813 3653 
L 1106 3653 
Q 1400 3653 1551 3751 
Q 1703 3850 1703 4038 
Q 1703 4219 1547 4314 
Q 1391 4409 1094 4409 
Q 969 4409 809 4381 
Q 650 4353 397 4281 
L 397 4641 
Q 625 4694 825 4722 
Q 1025 4750 1197 4750 
Q 1647 4750 1911 4565 
Q 2175 4381 2175 4072 
Q 2175 3856 2034 3706 
Q 1894 3556 1638 3500 
z
" transform="scale(0.015625)"/>
      <path id="DejaVuSans-29" d="M 513 4856 
L 1013 4856 
Q 1481 4119 1714 3412 
Q 1947 2706 1947 2009 
Q 1947 1309 1714 600 
Q 1481 -109 1013 -844 
L 513 -844 
Q 928 -128 1133 580 
Q 1338 1288 1338 2009 
Q 1338 2731 1133 3434 
Q 928 4138 513 4856 
z
" transform="scale(0.015625)"/>
     </defs>
     <use xlink:href="#DejaVuSans-53"/>
     <use xlink:href="#DejaVuSans-69" x="63.476562"/>
     <use xlink:href="#DejaVuSans-6d" x="91.259766"/>
     <use xlink:href="#DejaVuSans-75" x="188.671875"/>
     <use xlink:href="#DejaVuSans-6c" x="252.050781"/>
     <use xlink:href="#DejaVuSans-61" x="279.833984"/>
     <use xlink:href="#DejaVuSans-74" x="341.113281"/>
     <use xlink:href="#DejaVuSans-6f" x="380.322266"/>
     <use xlink:href="#DejaVuSans-72" x="441.503906"/>
     <use xlink:href="#DejaVuSans-20" x="482.617188"/>
     <use xlink:href="#DejaVuSans-42" x="514.404297"/>
     <use xlink:href="#DejaVuSans-75" x="583.007812"/>
     <use xlink:href="#DejaVuSans-64" x="646.386719"/>
     <use xlink:href="#DejaVuSans-67" x="709.863281"/>
     <use xlink:href="#DejaVuSans-65" x="773.339844"/>
     <use xlink:href="#DejaVuSans-74" x="834.863281"/>
     <use xlink:href="#DejaVuSans-20" x="874.072266"/>
     <use xlink:href="#DejaVuSans-28" x="905.859375"/>
     <use xlink:href="#DejaVuSans-78" x="944.873047"/>
     <use xlink:href="#DejaVuSans-31" x="1004.052734"/>
     <use xlink:href="#DejaVuSans-30" x="1067.675781"/>
     <use xlink:href="#DejaVuSans-b3" x="1131.298828"/>
     <use xlink:href="#DejaVuSans-29" x="1171.386719"/>
    </g>
   </g>
  </g>
 </g>
 <defs>
  <clipPath id="pb3f5ba22f4">
   <rect x="63.286406" y="72.76575" width="304.363636" height="221.76"/>
  </clipPath>
  <clipPath id="pefc3725f02">
   <rect x="428.52277" y="72.76575" width="304.363636" height="221.76"/>
  </clipPath>
 </defs>
</svg>
